<svg width="19" height="19" viewBox="0 0 19 19" fill="none" xmlns="http://www.w3.org/2000/svg">
<path d="M12.172 1C13.1512 1 13.532 2.72267 13.6 3.584H4.76001C4.76001 1.5168 5.66668 1 6.12001 1H12.172Z" stroke="#ff9100" stroke-width="1.36"/>
<rect y="2.90399" width="18.36" height="1.36" rx="0.68" fill="#ff9100"/>
<rect x="7.616" y="5.35199" width="9.384" height="1.36" rx="0.68" transform="rotate(90 7.616 5.35199)" fill="#ff9100"/>
<rect x="11.9681" y="5.35199" width="9.384" height="1.36" rx="0.68" transform="rotate(90 11.9681 5.35199)" fill="#ff9100"/>
<rect x="16.1841" y="5.35199" width="10.064" height="1.36" rx="0.68" transform="rotate(90 16.1841 5.35199)" fill="#ff9100"/>
<path d="M2.72006 14.94C2.74273 15.96 3.30486 18 5.37206 18H12.9201C13.7814 18 15.5041 17.184 15.5041 14.736" stroke="#ff9100" stroke-width="1.36"/>
<rect x="3.39993" y="5.35199" width="10.336" height="1.36" rx="0.68" transform="rotate(90 3.39993 5.35199)" fill="#ff9100"/>
</svg>
