<svg width="19" height="19" viewBox="0 0 19 19" fill="none" xmlns="http://www.w3.org/2000/svg">
<path d="M12.172 1C13.1512 1 13.532 2.72267 13.6 3.584H4.76001C4.76001 1.5168 5.66668 1 6.12001 1H12.172Z" stroke="#e9e7e7" stroke-width="1.36"/>
<rect y="2.90399" width="18.36" height="1.36" rx="0.68" fill="#e9e7e7"/>
<rect x="7.61597" y="5.35199" width="9.384" height="1.36" rx="0.68" transform="rotate(90 7.61597 5.35199)" fill="#e9e7e7"/>
<rect x="11.968" y="5.35199" width="9.384" height="1.36" rx="0.68" transform="rotate(90 11.968 5.35199)" fill="#e9e7e7"/>
<rect x="16.1841" y="5.35199" width="10.064" height="1.36" rx="0.68" transform="rotate(90 16.1841 5.35199)" fill="#e9e7e7"/>
<path d="M2.71997 14.94C2.74264 15.96 3.30477 18 5.37197 18H12.92C13.7813 18 15.504 17.184 15.504 14.736" stroke="#e9e7e7" stroke-width="1.36"/>
<rect x="3.3999" y="5.35199" width="10.336" height="1.36" rx="0.68" transform="rotate(90 3.3999 5.35199)" fill="#e9e7e7"/>
</svg>
